<svg width="20" height="21" viewBox="0 0 20 21" fill="none" xmlns="http://www.w3.org/2000/svg">
<path fill-rule="evenodd" clip-rule="evenodd" d="M2.98933 5.6893C2.98933 4.47431 3.97377 3.48987 5.18876 3.4889H6.18973C6.77048 3.4889 7.3269 3.25835 7.73936 2.84979L8.43878 2.14939C9.29579 1.28752 10.6888 1.28363 11.5507 2.14064L11.5516 2.14161L11.5604 2.14939L12.2608 2.84979C12.6732 3.25932 13.2297 3.4889 13.8104 3.4889H14.8104C16.0254 3.4889 17.0108 4.47334 17.0108 5.6893V6.68833C17.0108 7.26908 17.2404 7.82647 17.6499 8.23893L18.3503 8.93932C19.2122 9.79633 19.2171 11.1893 18.36 12.0512L18.3591 12.0522L18.3503 12.0609L17.6499 12.7613C17.2404 13.1728 17.0108 13.7292 17.0108 14.31V15.311C17.0108 16.5259 16.0264 17.5104 14.8114 17.5104H14.8104H13.8085C13.2277 17.5104 12.6703 17.7409 12.2588 18.1505L11.5584 18.8499C10.7024 19.7118 9.31038 19.7166 8.4485 18.8616C8.44753 18.8606 8.44656 18.8596 8.44559 18.8586L8.43683 18.8499L7.73741 18.1505C7.32593 17.7409 6.76853 17.5114 6.18779 17.5104H5.18876C3.97377 17.5104 2.98933 16.5259 2.98933 15.311V14.308C2.98933 13.7273 2.75878 13.1709 2.34924 12.7594L1.64982 12.059C0.787951 11.203 0.783087 9.81092 1.63912 8.94905C1.63912 8.94807 1.6401 8.9471 1.64107 8.94613L1.64982 8.93737L2.34924 8.23698C2.75878 7.82453 2.98933 7.2681 2.98933 6.68639V5.6893Z" stroke="black" stroke-width="1.2" stroke-linecap="round" stroke-linejoin="round"/>
<path d="M7.42065 12.9212L12.4207 7.92114" stroke="#6C5DD3" stroke-width="1.2" stroke-linecap="round" stroke-linejoin="round"/>
<path d="M12.3557 12.2518L12.4758 12.2635C12.7494 12.3193 12.9553 12.5614 12.9553 12.8514C12.9553 13.1415 12.7494 13.3835 12.4758 13.4393L12.3557 13.451H12.3469C12.0156 13.451 11.7463 13.1828 11.7463 12.8514C11.7464 12.5201 12.0156 12.2518 12.3469 12.2518H12.3557Z" stroke="#6C5DD3" stroke-width="1.2" stroke-linecap="round" stroke-linejoin="round"/>
<path d="M7.49146 7.38751L7.61157 7.39923C7.88515 7.45503 8.09104 7.69707 8.09106 7.98712C8.09106 8.27719 7.88515 8.5192 7.61157 8.57501L7.49146 8.58673H7.48267C7.1513 8.58673 6.88208 8.31849 6.88208 7.98712C6.88211 7.65578 7.15131 7.38751 7.48267 7.38751H7.49146Z" stroke="#6C5DD3" stroke-width="1.2" stroke-linecap="round" stroke-linejoin="round"/>
</svg>
