<svg width="17" height="16" viewBox="0 0 17 16" fill="none" xmlns="http://www.w3.org/2000/svg">
<path d="M14.3061 4.54126C14.6585 4.18888 14.8566 3.71091 14.8566 3.2125C14.8567 2.71409 14.6588 2.23607 14.3064 1.8836C13.954 1.53112 13.476 1.33307 12.9776 1.33301C12.4792 1.33295 12.0012 1.53088 11.6487 1.88326L2.75139 10.7826C2.59661 10.9369 2.48214 11.127 2.41806 11.3359L1.53739 14.2373C1.52016 14.2949 1.51886 14.3562 1.53363 14.4145C1.54839 14.4728 1.57867 14.5261 1.62126 14.5686C1.66384 14.6111 1.71714 14.6413 1.7755 14.656C1.83386 14.6707 1.8951 14.6693 1.95273 14.6519L4.85473 13.7719C5.06351 13.7084 5.25351 13.5947 5.40806 13.4406L14.3061 4.54126Z" stroke="#14161A" stroke-width="1.33333" stroke-linecap="round" stroke-linejoin="round"/>
</svg>
