<svg width="24" height="25" viewBox="0 0 24 25" fill="none" xmlns="http://www.w3.org/2000/svg">
<path d="M21.7556 21.1064L18.3182 17.7457L18.2377 17.6231C18.0879 17.474 17.883 17.39 17.6692 17.39C17.4554 17.39 17.2506 17.474 17.1008 17.6231C14.1796 20.3032 9.67822 20.4488 6.58208 17.9635C3.48593 15.4783 2.75574 11.1332 4.87576 7.81C6.99577 4.4868 11.3081 3.21668 14.9529 4.84197C18.5977 6.46726 20.4439 10.4836 19.2671 14.2274C19.1823 14.4979 19.2516 14.792 19.4488 14.999C19.646 15.206 19.9412 15.2944 20.2231 15.2309C20.5051 15.1674 20.731 14.9617 20.8157 14.6913C22.2225 10.2485 20.0978 5.46739 15.8162 3.44089C11.5346 1.41439 6.38091 2.75066 3.68913 6.58525C0.997343 10.4198 1.57525 15.602 5.049 18.7793C8.52276 21.9567 13.8499 22.1757 17.5842 19.2947L20.6277 22.2703C20.9421 22.5763 21.4502 22.5763 21.7646 22.2703C22.0786 21.96 22.0786 21.4604 21.7646 21.1501L21.7556 21.1064Z" fill="#64748B"/>
</svg>
