<svg width="16" height="16" viewBox="0 0 16 16" fill="none" xmlns="http://www.w3.org/2000/svg">
<path d="M6.62235 10.3332C6.56283 10.1025 6.44257 9.89191 6.27409 9.72343C6.10561 9.55495 5.89506 9.43469 5.66435 9.37517L1.57435 8.32051C1.50457 8.3007 1.44315 8.25867 1.39942 8.2008C1.35569 8.14293 1.33203 8.07238 1.33203 7.99984C1.33203 7.9273 1.35569 7.85675 1.39942 7.79888C1.44315 7.74101 1.50457 7.69898 1.57435 7.67917L5.66435 6.62384C5.89498 6.56438 6.10548 6.44422 6.27395 6.27587C6.44242 6.10751 6.56273 5.8971 6.62235 5.66651L7.67701 1.57651C7.69662 1.50645 7.7386 1.44474 7.79656 1.40077C7.85452 1.35681 7.92527 1.33301 7.99801 1.33301C8.07076 1.33301 8.14151 1.35681 8.19947 1.40077C8.25743 1.44474 8.29941 1.50645 8.31902 1.57651L9.37301 5.66651C9.43253 5.89722 9.55279 6.10777 9.72127 6.27625C9.88975 6.44473 10.1003 6.56499 10.331 6.62451L14.421 7.67851C14.4913 7.69791 14.5534 7.73985 14.5976 7.79789C14.6418 7.85594 14.6657 7.92688 14.6657 7.99984C14.6657 8.0728 14.6418 8.14374 14.5976 8.20179C14.5534 8.25983 14.4913 8.30177 14.421 8.32117L10.331 9.37517C10.1003 9.43469 9.88975 9.55495 9.72127 9.72343C9.55279 9.89191 9.43253 10.1025 9.37301 10.3332L8.31835 14.4232C8.29874 14.4932 8.25676 14.5549 8.1988 14.5989C8.14084 14.6429 8.07009 14.6667 7.99735 14.6667C7.9246 14.6667 7.85385 14.6429 7.7959 14.5989C7.73794 14.5549 7.69595 14.4932 7.67635 14.4232L6.62235 10.3332Z" stroke="#F9FAFB" stroke-width="1.33333" stroke-linecap="round" stroke-linejoin="round"/>
<path d="M13.332 2V4.66667" stroke="#F9FAFB" stroke-width="1.33333" stroke-linecap="round" stroke-linejoin="round"/>
<path d="M14.6667 3.33301H12" stroke="#F9FAFB" stroke-width="1.33333" stroke-linecap="round" stroke-linejoin="round"/>
<path d="M2.66797 11.333V12.6663" stroke="#F9FAFB" stroke-width="1.33333" stroke-linecap="round" stroke-linejoin="round"/>
<path d="M3.33333 12H2" stroke="#F9FAFB" stroke-width="1.33333" stroke-linecap="round" stroke-linejoin="round"/>
</svg>
